<svg id="svg" version="1.1" xmlns="http://www.w3.org/2000/svg" xmlns:xlink="http://www.w3.org/1999/xlink" width="400" height="277.8242677824268" viewBox="0, 0, 400,277.8242677824268"><g id="svgg"><path id="path0" d="M235.580 20.767 C 233.375 21.437,232.048 22.027,230.883 22.856 C 230.286 23.280,229.692 23.628,229.562 23.628 C 229.180 23.628,228.045 24.932,225.179 28.662 C 223.800 30.458,223.804 40.333,225.186 41.583 C 225.475 41.845,225.712 42.217,225.712 42.410 C 225.712 42.603,226.078 43.105,226.524 43.527 C 227.703 44.640,227.926 47.811,226.825 47.811 C 226.709 47.811,226.349 48.429,226.024 49.185 C 225.698 49.941,225.307 50.636,225.155 50.731 C 225.002 50.825,224.619 51.426,224.303 52.067 C 223.987 52.707,223.240 54.044,222.643 55.038 C 222.046 56.032,221.305 57.360,220.997 57.990 C 220.689 58.619,220.262 59.280,220.047 59.458 C 219.832 59.636,219.498 60.185,219.303 60.676 C 219.109 61.168,218.794 61.758,218.604 61.987 C 218.275 62.384,218.000 62.864,216.063 66.435 C 215.058 68.288,215.331 69.522,216.895 70.186 C 217.387 70.395,218.221 70.887,218.748 71.280 C 220.259 72.408,221.583 71.951,222.641 69.935 C 222.970 69.310,223.729 68.047,224.329 67.130 C 224.928 66.213,225.593 65.082,225.805 64.617 C 226.017 64.152,226.382 63.582,226.614 63.349 C 226.847 63.116,227.319 62.374,227.663 61.701 C 228.288 60.475,228.465 60.190,230.111 57.772 C 230.597 57.060,230.994 56.371,230.994 56.243 C 230.994 56.114,231.432 55.394,231.967 54.641 C 232.502 53.888,232.940 53.173,232.940 53.052 C 232.940 52.778,234.656 50.321,234.869 50.290 C 234.955 50.278,236.400 50.230,238.082 50.183 C 242.841 50.050,248.068 48.037,249.604 45.745 C 249.841 45.391,250.646 44.201,251.394 43.100 C 252.276 41.800,252.878 40.545,253.108 39.521 C 253.303 38.653,253.610 37.454,253.789 36.857 C 254.366 34.938,253.309 30.298,251.797 28.109 C 250.140 25.712,248.494 23.628,248.257 23.628 C 248.129 23.628,247.602 23.255,247.084 22.799 C 246.534 22.316,245.334 21.729,244.197 21.388 C 243.127 21.068,241.889 20.690,241.446 20.549 C 240.256 20.170,237.170 20.284,235.580 20.767 M237.973 25.263 C 238.639 25.803,238.377 26.685,237.550 26.685 C 237.158 26.685,235.656 27.940,233.512 30.057 C 230.886 32.652,229.604 32.961,229.604 31.001 C 229.604 30.195,231.331 27.215,232.074 26.739 C 232.474 26.482,233.041 26.054,233.336 25.787 C 233.630 25.521,234.318 25.228,234.865 25.137 C 235.411 25.046,235.983 24.929,236.136 24.878 C 236.796 24.654,237.368 24.774,237.973 25.263 M151.216 42.225 C 149.155 42.582,143.989 45.372,143.989 46.128 C 143.989 46.246,143.552 46.892,143.019 47.563 C 142.485 48.235,142.047 48.921,142.046 49.088 C 142.044 49.256,141.799 49.614,141.500 49.884 C 140.525 50.767,139.647 56.338,140.085 58.860 C 140.770 62.794,140.980 63.656,141.305 63.861 C 141.489 63.977,141.847 64.399,142.100 64.798 C 142.353 65.197,142.728 65.697,142.931 65.910 C 143.135 66.122,143.717 66.828,144.225 67.477 C 144.732 68.127,145.273 68.659,145.426 68.659 C 145.579 68.659,146.226 69.025,146.862 69.473 C 150.681 72.161,156.435 72.634,160.432 70.590 C 161.993 69.792,163.328 70.164,165.045 71.874 C 172.619 79.423,172.698 79.459,175.462 76.640 C 178.410 73.631,178.652 74.092,169.910 66.036 C 168.257 64.513,168.151 64.040,168.970 61.849 C 169.678 59.955,169.913 57.433,169.552 55.594 C 169.387 54.753,169.144 53.429,169.012 52.650 C 168.773 51.242,167.898 49.587,166.808 48.481 C 166.493 48.161,166.045 47.444,165.812 46.888 C 165.580 46.331,165.046 45.656,164.627 45.386 C 164.207 45.117,163.614 44.662,163.308 44.376 C 161.343 42.534,155.468 41.489,151.216 42.225 M153.721 47.261 C 154.101 47.971,153.929 48.241,152.733 48.808 C 152.205 49.059,151.772 49.369,151.772 49.497 C 151.772 49.626,151.209 49.980,150.521 50.284 C 149.833 50.588,149.270 50.959,149.270 51.109 C 149.270 52.012,146.408 54.494,145.898 54.032 C 144.552 52.814,146.206 49.490,148.964 47.872 C 150.977 46.690,153.259 46.397,153.721 47.261 M199.282 72.938 C 199.218 72.999,197.842 73.189,196.223 73.362 C 191.971 73.816,186.434 76.035,184.099 78.222 C 179.925 82.130,178.066 84.197,177.263 85.823 C 176.941 86.473,176.578 87.005,176.456 87.005 C 176.334 87.005,176.233 87.161,176.232 87.352 C 176.232 87.543,175.866 88.434,175.419 89.331 C 172.547 95.099,172.978 107.190,176.240 112.300 C 176.386 112.530,176.774 113.218,177.102 113.829 C 178.000 115.502,179.032 116.783,182.526 120.570 C 183.549 121.678,184.544 122.585,184.737 122.585 C 184.931 122.585,185.257 122.754,185.463 122.959 C 185.669 123.165,186.335 123.563,186.942 123.843 C 187.550 124.123,188.360 124.563,188.742 124.822 C 189.124 125.080,190.266 125.498,191.280 125.750 C 192.293 126.002,193.544 126.423,194.060 126.686 C 195.593 127.469,205.406 127.397,206.949 126.591 C 207.561 126.272,208.494 125.926,209.022 125.822 C 209.924 125.645,214.568 123.500,214.871 123.120 C 214.948 123.025,215.274 122.808,215.595 122.639 C 216.164 122.340,218.343 120.650,218.902 120.075 C 220.047 118.897,221.273 117.456,222.099 116.321 C 222.634 115.584,223.199 114.848,223.354 114.683 C 223.796 114.216,225.933 109.754,226.159 108.826 C 226.271 108.367,226.619 107.429,226.933 106.741 C 227.791 104.861,227.782 95.013,226.920 93.120 C 226.607 92.432,226.186 91.244,225.986 90.479 C 225.786 89.715,225.414 88.777,225.161 88.395 C 224.907 88.013,224.473 87.199,224.196 86.588 C 223.232 84.455,218.327 79.212,216.006 77.832 C 215.363 77.450,214.375 76.835,213.812 76.467 C 213.248 76.098,212.224 75.578,211.536 75.310 C 210.848 75.042,209.659 74.577,208.895 74.275 C 207.229 73.618,199.673 72.567,199.282 72.938 M195.989 82.568 C 197.100 83.162,195.893 84.606,191.959 87.389 C 191.337 87.829,190.764 88.278,190.688 88.386 C 190.612 88.493,190.350 88.696,190.106 88.835 C 189.862 88.975,189.057 89.778,188.317 90.618 C 185.340 94.000,184.295 94.276,184.295 91.679 C 184.295 86.942,192.384 80.639,195.989 82.568 M262.821 92.354 C 260.011 93.548,258.798 94.308,257.540 95.663 C 255.496 97.865,254.622 99.011,254.615 99.498 C 254.612 99.736,254.387 100.219,254.116 100.571 L 253.623 101.212 247.257 100.780 C 234.284 99.899,234.518 99.841,234.375 103.949 C 234.258 107.270,234.192 107.207,238.101 107.541 C 240.764 107.769,245.436 108.269,250.869 108.908 L 252.536 109.104 253.802 111.605 C 256.119 116.187,257.616 118.117,259.625 119.112 C 260.160 119.377,260.785 119.747,261.015 119.933 C 261.501 120.327,266.948 121.756,267.953 121.753 C 269.818 121.748,274.507 120.268,275.878 119.253 C 277.395 118.130,279.639 115.816,279.639 115.374 C 279.639 115.223,279.999 114.730,280.440 114.279 C 283.474 111.176,283.479 104.034,280.452 99.355 C 279.852 98.427,279.361 97.559,279.361 97.425 C 279.361 97.088,276.475 94.325,275.511 93.740 C 275.075 93.476,274.387 93.025,273.980 92.739 C 273.023 92.066,264.215 91.762,262.821 92.354 M267.252 96.212 C 267.409 96.355,267.016 96.867,266.280 97.484 C 265.601 98.052,263.919 99.609,262.543 100.943 C 258.560 104.805,256.505 104.746,258.970 100.839 C 259.330 100.269,259.625 99.723,259.625 99.625 C 259.625 97.631,265.786 94.874,267.252 96.212 M164.559 107.858 C 164.329 108.009,163.329 108.388,162.335 108.698 C 161.341 109.009,159.756 109.572,158.813 109.948 C 157.870 110.324,156.867 110.632,156.585 110.632 C 156.303 110.632,155.600 110.886,155.023 111.195 C 154.445 111.504,153.134 111.952,152.108 112.189 C 151.082 112.427,149.868 112.850,149.409 113.131 C 148.951 113.412,147.950 113.733,147.186 113.846 C 146.421 113.958,145.254 114.282,144.591 114.565 C 143.079 115.212,142.955 115.208,142.733 114.509 C 142.528 113.863,139.384 110.632,138.960 110.632 C 138.808 110.632,137.889 110.261,136.917 109.806 C 133.785 108.342,126.283 108.366,123.845 109.848 C 122.291 110.793,119.236 113.699,118.783 114.663 C 118.568 115.122,118.092 115.910,117.726 116.415 C 115.163 119.953,115.155 127.765,117.711 130.646 C 118.050 131.028,118.590 131.779,118.910 132.314 C 120.253 134.554,123.739 137.166,125.791 137.470 C 126.550 137.583,127.656 137.844,128.249 138.052 C 129.626 138.534,131.667 138.534,133.044 138.052 C 133.636 137.844,134.746 137.582,135.511 137.469 C 136.357 137.343,137.330 136.948,137.998 136.456 C 138.601 136.013,139.237 135.650,139.411 135.650 C 139.585 135.650,140.062 135.274,140.470 134.816 C 140.879 134.357,141.318 133.982,141.446 133.982 C 141.573 133.982,141.916 133.513,142.208 132.940 C 142.499 132.366,143.070 131.459,143.476 130.924 C 143.882 130.389,144.303 129.514,144.411 128.978 C 144.520 128.443,144.716 127.872,144.846 127.710 C 144.977 127.547,145.244 126.361,145.440 125.075 L 145.796 122.737 147.186 121.966 C 149.150 120.875,149.759 120.639,150.609 120.639 C 151.019 120.638,152.043 120.280,152.884 119.843 C 153.725 119.406,154.980 118.975,155.674 118.884 C 156.368 118.794,157.494 118.416,158.176 118.045 C 158.858 117.673,159.930 117.293,160.557 117.201 C 161.184 117.108,162.373 116.729,163.198 116.359 C 164.023 115.988,165.256 115.596,165.939 115.487 C 167.720 115.203,169.509 113.093,168.498 112.469 C 168.372 112.391,168.047 111.539,167.775 110.576 C 166.955 107.664,166.899 107.574,165.885 107.579 C 165.385 107.581,164.788 107.707,164.559 107.858 M129.542 114.250 C 130.138 114.569,130.003 115.257,129.300 115.489 C 129.047 115.573,128.416 116.015,127.898 116.472 C 127.381 116.930,126.872 117.304,126.767 117.304 C 126.663 117.304,125.469 118.370,124.115 119.673 C 121.458 122.230,121.101 122.367,120.973 120.870 C 120.673 117.376,126.694 112.726,129.542 114.250 M209.173 133.436 C 207.797 133.713,206.203 134.016,205.631 134.111 C 204.024 134.379,203.954 135.369,205.285 138.985 C 205.538 139.673,205.851 141.257,205.980 142.505 C 206.109 143.754,206.392 145.129,206.608 145.563 C 208.299 148.953,208.210 153.141,206.427 154.048 C 205.305 154.619,204.309 155.526,204.309 155.974 C 204.309 156.099,203.956 156.611,203.526 157.113 C 200.198 160.997,199.671 168.144,202.383 172.620 C 202.985 173.614,203.739 174.990,204.058 175.678 C 205.092 177.908,209.108 180.126,213.113 180.681 C 217.329 181.264,221.789 180.304,223.885 178.362 C 224.323 177.956,224.821 177.623,224.992 177.623 C 225.163 177.623,225.612 177.123,225.990 176.511 C 226.368 175.900,226.744 175.400,226.826 175.400 C 226.908 175.400,227.282 174.837,227.658 174.149 C 228.034 173.461,228.427 172.898,228.533 172.898 C 229.304 172.898,230.878 166.115,230.454 164.618 C 230.250 163.897,229.920 162.715,229.721 161.990 C 229.522 161.265,229.171 160.327,228.942 159.905 C 228.713 159.483,228.247 158.575,227.905 157.887 C 227.335 156.740,226.710 155.916,225.481 154.693 C 224.444 153.662,222.358 152.626,219.597 151.771 C 216.590 150.839,215.708 150.342,215.702 149.575 C 215.700 149.331,215.451 148.342,215.149 147.378 C 214.846 146.414,214.470 144.788,214.312 143.765 C 214.153 142.741,213.774 141.312,213.469 140.587 C 213.148 139.827,212.799 138.069,212.642 136.429 C 212.297 132.798,212.307 132.807,209.173 133.436 M214.028 156.347 C 214.379 156.770,212.370 158.988,211.628 158.996 C 211.449 158.998,210.237 160.063,208.935 161.362 C 207.016 163.277,206.408 163.725,205.732 163.725 C 204.765 163.725,204.428 163.368,204.970 162.918 C 205.178 162.746,205.573 162.013,205.849 161.289 C 207.174 157.802,212.543 154.558,214.028 156.347 M80.264 214.752 L 79.500 215.167 79.500 219.878 L 79.500 224.590 78.763 224.775 C 78.011 224.963,76.679 224.417,75.593 223.475 C 74.071 222.155,67.859 222.358,65.496 223.804 C 64.287 224.544,61.987 226.693,61.987 227.082 C 61.987 227.223,61.679 227.704,61.303 228.152 C 60.926 228.599,60.496 229.516,60.348 230.188 C 60.200 230.861,59.965 231.932,59.827 232.568 C 59.120 235.825,61.193 241.098,63.855 242.813 C 64.280 243.087,64.913 243.591,65.261 243.932 C 65.636 244.300,66.430 244.634,67.207 244.750 C 67.929 244.859,68.754 245.072,69.040 245.225 C 69.724 245.592,72.655 245.582,73.607 245.211 C 74.020 245.050,74.881 244.785,75.520 244.622 C 78.358 243.898,81.400 240.294,82.131 236.790 C 82.822 233.473,82.756 215.415,82.049 214.776 C 81.436 214.220,81.249 214.218,80.264 214.752 M134.190 214.616 C 133.755 214.869,133.704 215.435,133.704 219.994 C 133.704 225.498,133.505 226.319,132.452 225.155 C 132.176 224.850,131.803 224.600,131.624 224.600 C 131.444 224.600,130.744 224.240,130.069 223.798 C 125.691 220.942,117.226 223.148,115.370 227.630 C 115.173 228.104,114.904 228.492,114.772 228.492 C 113.214 228.492,113.195 238.406,114.751 239.495 C 115.085 239.729,115.358 240.091,115.358 240.299 C 115.358 240.716,116.903 242.346,118.526 243.641 C 122.931 247.155,131.600 245.241,134.781 240.053 L 135.789 238.410 135.880 226.895 C 135.964 216.285,135.933 215.338,135.489 214.848 C 134.940 214.241,134.859 214.227,134.190 214.616 M315.217 214.873 C 314.859 215.094,314.802 216.859,314.802 227.718 L 314.802 240.306 315.854 241.878 C 316.433 242.743,317.078 243.593,317.288 243.768 C 318.098 244.440,320.802 245.669,321.265 245.577 C 321.532 245.523,322.221 245.404,322.796 245.312 C 325.642 244.856,324.984 242.669,322.000 242.669 C 320.389 242.669,320.182 242.597,319.383 241.765 C 318.061 240.388,317.955 239.879,317.792 234.129 C 317.611 227.774,317.548 227.936,320.203 227.936 C 322.532 227.936,323.275 227.506,322.789 226.438 C 322.479 225.758,322.338 225.712,320.540 225.712 C 317.883 225.712,317.912 225.769,317.731 220.137 C 317.649 217.562,317.457 215.340,317.304 215.199 C 316.851 214.783,315.663 214.597,315.217 214.873 M40.862 222.778 C 37.737 223.353,34.774 225.612,33.491 228.397 C 33.127 229.186,32.715 229.902,32.574 229.989 C 32.231 230.201,31.859 233.261,31.944 235.163 C 32.026 236.974,33.679 240.705,34.927 241.895 C 36.774 243.656,38.169 244.604,39.139 244.755 C 39.704 244.843,40.667 245.057,41.279 245.230 C 42.539 245.588,45.104 245.559,46.143 245.175 C 46.525 245.034,47.359 244.785,47.996 244.623 C 49.682 244.193,53.361 240.890,53.367 239.801 C 53.379 237.868,51.279 237.554,50.276 239.338 C 49.896 240.014,49.148 240.746,48.382 241.190 C 47.686 241.595,47.027 242.061,46.918 242.228 C 46.433 242.965,40.254 242.597,39.168 241.765 C 38.618 241.345,38.041 241.001,37.886 241.001 C 36.803 241.001,34.717 236.117,35.320 234.991 L 35.674 234.329 44.254 234.329 C 53.966 234.329,54.204 234.285,54.204 232.464 C 54.204 230.493,52.832 227.153,51.658 226.267 C 51.556 226.189,51.055 225.778,50.545 225.354 C 47.917 223.165,47.614 223.012,45.526 222.816 C 44.413 222.712,43.315 222.586,43.085 222.536 C 42.856 222.486,41.855 222.595,40.862 222.778 M151.772 222.566 C 149.828 222.787,147.770 223.217,147.619 223.434 C 147.533 223.557,147.007 223.934,146.448 224.274 C 145.530 224.831,144.826 225.538,142.961 227.774 C 140.382 230.866,140.581 237.309,143.363 240.838 C 143.707 241.275,143.989 241.732,143.989 241.854 C 143.989 242.394,147.875 244.650,149.300 244.938 C 153.418 245.769,158.560 244.384,159.390 242.219 C 159.851 241.018,160.528 242.083,161.376 245.344 C 161.519 245.895,163.264 246.006,163.674 245.491 C 164.370 244.617,164.016 231.069,163.270 230.021 C 162.944 229.562,162.494 228.749,162.271 228.214 C 161.775 227.024,159.677 224.822,158.422 224.173 C 157.914 223.910,157.343 223.540,157.155 223.352 C 156.967 223.163,156.147 222.922,155.335 222.816 C 154.522 222.710,153.607 222.586,153.301 222.540 C 152.995 222.494,152.307 222.506,151.772 222.566 M177.901 222.787 C 174.216 223.496,171.084 226.030,169.305 229.743 C 168.473 231.480,168.907 239.333,169.835 239.333 C 169.962 239.333,170.398 239.900,170.804 240.593 C 171.600 241.951,174.357 244.152,175.795 244.578 C 179.727 245.742,185.607 245.470,187.283 244.046 C 187.551 243.819,188.167 243.352,188.653 243.007 C 189.786 242.204,190.861 240.507,190.479 240.125 C 189.698 239.343,188.245 239.380,187.459 240.200 C 187.037 240.641,186.588 241.001,186.461 241.001 C 186.334 241.001,185.700 241.345,185.054 241.765 C 183.276 242.921,177.794 242.928,176.095 241.776 C 170.495 237.983,170.185 230.588,175.466 226.783 C 178.000 224.957,183.907 224.972,186.071 226.809 C 188.005 228.452,189.014 228.635,190.341 227.587 C 190.986 227.076,189.589 225.321,187.826 224.428 C 187.336 224.180,186.716 223.785,186.448 223.550 C 185.314 222.555,181.072 222.176,177.901 222.787 M204.425 222.797 C 197.905 223.991,193.289 232.858,196.323 238.360 C 196.576 238.819,196.973 239.590,197.204 240.073 C 198.704 243.210,203.706 245.772,207.526 245.361 C 210.062 245.088,212.111 244.521,212.772 243.908 C 213.133 243.574,213.818 243.023,214.294 242.684 C 217.230 240.594,218.691 235.879,217.818 231.312 C 217.514 229.722,217.161 228.737,216.698 228.187 C 216.326 227.745,215.944 227.138,215.849 226.840 C 215.264 224.996,208.820 221.930,206.532 222.408 C 206.456 222.424,205.507 222.599,204.425 222.797 M271.200 222.812 C 269.998 223.014,268.810 223.359,268.559 223.579 C 268.308 223.799,267.816 224.066,267.466 224.173 C 265.705 224.710,263.136 228.378,262.687 230.994 C 262.081 234.532,262.429 252.546,263.117 253.234 L 263.690 253.807 264.229 253.213 C 264.705 252.688,264.783 252.060,264.906 247.805 C 264.983 245.157,265.113 242.924,265.195 242.842 C 265.428 242.611,267.201 243.309,267.875 243.898 C 269.660 245.456,273.517 246.027,276.442 245.164 C 288.279 241.675,287.665 224.891,275.623 222.771 C 274.392 222.555,273.384 222.392,273.384 222.411 C 273.384 222.429,272.401 222.610,271.200 222.812 M291.234 222.991 L 290.460 223.263 290.559 229.561 C 290.705 238.788,290.954 240.120,292.959 242.391 C 295.231 244.964,299.837 246.314,302.624 245.224 C 303.054 245.056,303.905 244.786,304.517 244.625 C 306.000 244.233,307.492 242.785,308.604 240.659 L 309.516 238.916 309.604 231.141 C 309.703 222.433,309.739 222.594,307.789 222.910 L 306.741 223.080 306.602 230.998 C 306.442 240.098,306.526 239.765,303.937 241.521 L 302.145 242.736 299.648 242.617 C 297.849 242.531,297.054 242.378,296.804 242.070 C 296.612 241.835,296.081 241.384,295.622 241.068 C 293.822 239.828,293.446 238.110,293.274 230.332 C 293.102 222.614,293.031 222.357,291.234 222.991 M336.391 222.902 C 335.728 223.019,335.102 223.239,335.001 223.390 C 334.899 223.541,334.237 224.058,333.530 224.539 C 329.226 227.467,327.247 233.357,329.148 237.580 C 329.437 238.222,329.673 238.861,329.673 239.002 C 329.673 240.088,332.605 243.214,334.685 244.348 C 336.065 245.099,341.468 245.686,342.674 245.215 C 343.091 245.052,343.954 244.785,344.591 244.623 C 346.723 244.079,349.679 241.125,349.684 239.533 C 349.690 237.641,347.904 237.807,346.550 239.823 C 346.115 240.471,345.646 241.001,345.509 241.001 C 345.372 241.001,344.667 241.376,343.944 241.835 C 342.711 242.616,342.457 242.669,339.878 242.669 L 337.127 242.669 335.375 241.517 C 334.008 240.618,333.483 240.068,332.990 239.015 C 332.643 238.272,332.260 237.665,332.140 237.665 C 331.816 237.665,331.532 235.827,331.733 235.026 L 331.908 234.329 340.450 234.328 C 350.445 234.326,351.078 234.230,351.076 232.718 C 351.073 230.016,348.291 225.540,345.836 224.288 C 345.432 224.082,344.769 223.678,344.364 223.391 C 343.536 222.804,338.636 222.503,336.391 222.902 M95.344 223.135 C 94.962 223.204,94.461 223.423,94.232 223.620 C 94.003 223.817,93.533 224.065,93.188 224.170 C 91.802 224.592,89.780 226.926,88.948 229.063 C 87.772 232.086,88.365 245.448,89.675 245.448 C 91.060 245.448,91.389 243.978,91.539 237.109 C 91.709 229.365,91.814 228.929,93.900 227.317 L 95.374 226.177 98.420 226.202 C 103.972 226.247,104.517 227.232,104.517 237.226 L 104.517 243.772 105.335 244.679 L 106.154 245.587 106.795 244.955 C 107.900 243.864,107.816 229.686,106.691 227.559 C 104.738 223.865,100.472 222.201,95.344 223.135 M229.882 223.343 C 229.500 223.564,228.969 223.846,228.702 223.969 C 225.103 225.640,223.780 229.276,223.576 238.063 C 223.437 244.035,223.481 244.363,224.501 245.031 C 226.003 246.016,226.220 245.151,226.320 237.779 C 226.375 233.748,226.519 231.211,226.707 230.966 C 226.872 230.752,227.217 230.014,227.474 229.326 C 228.399 226.854,231.606 225.225,234.086 225.968 C 237.766 227.070,238.499 229.039,238.499 237.822 L 238.499 244.036 239.261 244.742 C 241.014 246.368,241.386 245.285,241.557 238.069 C 241.640 234.522,241.814 232.036,241.994 231.801 C 242.159 231.586,242.449 230.868,242.638 230.204 C 243.562 226.977,248.089 224.975,251.163 226.433 C 253.150 227.377,253.503 228.992,253.506 237.174 L 253.509 243.772 254.328 244.679 L 255.146 245.587 255.787 244.954 C 256.588 244.162,256.796 230.237,256.039 228.075 C 253.946 222.100,246.422 221.195,241.314 226.304 C 240.181 227.437,240.078 227.483,239.785 226.990 C 239.165 225.941,237.975 224.712,237.202 224.320 C 236.769 224.100,236.116 223.698,235.751 223.426 C 234.895 222.789,230.938 222.732,229.882 223.343 M361.407 223.704 C 359.149 225.122,356.376 228.345,356.349 229.582 C 356.344 229.823,356.098 230.521,355.803 231.133 C 355.324 232.125,355.265 232.890,355.260 238.221 C 355.255 244.444,355.279 244.606,356.271 245.129 C 357.920 245.997,358.203 245.016,358.382 237.804 L 358.527 231.967 359.435 230.160 C 360.609 227.821,361.939 226.519,363.699 225.984 C 365.467 225.446,366.558 223.964,365.665 223.311 C 364.784 222.667,362.761 222.854,361.407 223.704 M74.324 225.790 C 76.975 226.771,78.272 228.219,79.278 231.319 L 80.029 233.634 79.521 235.441 C 78.552 238.889,77.950 239.793,75.454 241.553 C 73.819 242.706,68.274 243.068,67.490 242.073 C 67.292 241.822,66.808 241.446,66.414 241.239 C 60.602 238.175,61.667 227.810,67.994 225.866 C 68.895 225.589,69.757 225.245,69.910 225.101 C 70.328 224.707,72.181 224.996,74.324 225.790 M126.133 225.136 C 126.399 225.278,127.304 225.602,128.145 225.857 C 132.322 227.120,134.840 232.899,132.919 236.814 C 132.586 237.492,132.312 238.180,132.309 238.343 C 132.302 238.777,130.124 240.923,128.839 241.763 C 127.428 242.685,123.439 243.013,122.124 242.315 C 121.689 242.085,120.836 241.631,120.228 241.307 C 118.845 240.570,117.400 238.774,116.986 237.277 C 116.812 236.650,116.499 235.598,116.290 234.940 C 115.935 233.822,116.007 232.610,116.467 231.967 C 116.576 231.814,116.895 231.035,117.176 230.237 C 117.840 228.348,119.726 226.495,121.612 225.880 C 122.377 225.630,123.190 225.305,123.419 225.157 C 123.951 224.813,125.505 224.801,126.133 225.136 M46.480 225.932 C 48.033 226.496,50.313 228.362,50.313 229.071 C 50.313 229.346,50.438 229.648,50.591 229.743 C 51.011 230.002,50.925 230.749,50.409 231.319 C 49.986 231.786,49.376 231.828,42.925 231.828 L 35.902 231.828 35.719 230.995 C 34.973 227.595,41.978 224.300,46.480 225.932 M154.950 225.900 C 156.915 226.443,158.381 227.576,159.619 229.505 C 160.771 231.302,160.962 235.751,159.935 236.876 C 159.608 237.234,159.251 237.839,159.141 238.221 C 158.952 238.878,156.681 241.279,156.249 241.279 C 156.137 241.279,155.765 241.541,155.420 241.862 C 153.578 243.579,148.947 242.608,146.436 239.979 C 140.358 233.614,146.445 223.549,154.950 225.900 M210.272 226.106 C 216.826 228.844,216.846 238.936,210.304 242.103 C 208.937 242.765,204.859 242.900,203.859 242.317 C 203.535 242.128,202.829 241.723,202.290 241.418 C 196.555 238.164,197.762 227.836,204.106 225.891 C 205.774 225.379,208.783 225.484,210.272 226.106 M276.461 225.847 C 278.808 226.553,280.646 228.527,281.599 231.363 L 282.388 233.709 281.815 236.139 C 280.971 239.718,278.222 242.401,275.040 242.752 C 273.032 242.974,269.874 242.536,269.571 241.995 C 269.436 241.754,269.171 241.557,268.981 241.557 C 268.791 241.557,268.122 241.025,267.495 240.375 C 261.053 233.702,267.555 223.166,276.461 225.847 M342.960 225.860 C 345.816 226.709,348.574 230.658,346.926 231.540 C 345.939 232.068,333.567 231.916,332.961 231.368 C 332.315 230.783,332.322 230.384,333.001 229.106 C 334.663 225.978,338.808 224.627,342.960 225.860 " stroke="none" fill="#582a4a" fill-rule="evenodd"></path><path id="path1" d="M0.000 138.985 L 0.000 277.971 200.000 277.971 L 400.000 277.971 400.000 138.985 L 400.000 0.000 200.000 0.000 L 0.000 0.000 0.000 138.985 M241.446 20.549 C 241.889 20.690,243.127 21.068,244.197 21.388 C 245.334 21.729,246.534 22.316,247.084 22.799 C 247.602 23.255,248.129 23.628,248.257 23.628 C 248.494 23.628,250.140 25.712,251.797 28.109 C 253.309 30.298,254.366 34.938,253.789 36.857 C 253.610 37.454,253.303 38.653,253.108 39.521 C 252.878 40.545,252.276 41.800,251.394 43.100 C 250.646 44.201,249.841 45.391,249.604 45.745 C 248.068 48.037,242.841 50.050,238.082 50.183 C 236.400 50.230,234.955 50.278,234.869 50.290 C 234.656 50.321,232.940 52.778,232.940 53.052 C 232.940 53.173,232.502 53.888,231.967 54.641 C 231.432 55.394,230.994 56.114,230.994 56.243 C 230.994 56.371,230.597 57.060,230.111 57.772 C 228.465 60.190,228.288 60.475,227.663 61.701 C 227.319 62.374,226.847 63.116,226.614 63.349 C 226.382 63.582,226.017 64.152,225.805 64.617 C 225.593 65.082,224.928 66.213,224.329 67.130 C 223.729 68.047,222.970 69.310,222.641 69.935 C 221.583 71.951,220.259 72.408,218.748 71.280 C 218.221 70.887,217.387 70.395,216.895 70.186 C 215.331 69.522,215.058 68.288,216.063 66.435 C 218.000 62.864,218.275 62.384,218.604 61.987 C 218.794 61.758,219.109 61.168,219.303 60.676 C 219.498 60.185,219.832 59.636,220.047 59.458 C 220.262 59.280,220.689 58.619,220.997 57.990 C 221.305 57.360,222.046 56.032,222.643 55.038 C 223.240 54.044,223.987 52.707,224.303 52.067 C 224.619 51.426,225.002 50.825,225.155 50.731 C 225.307 50.636,225.698 49.941,226.024 49.185 C 226.349 48.429,226.709 47.811,226.825 47.811 C 227.926 47.811,227.703 44.640,226.524 43.527 C 226.078 43.105,225.712 42.603,225.712 42.410 C 225.712 42.217,225.475 41.845,225.186 41.583 C 223.804 40.333,223.800 30.458,225.179 28.662 C 228.045 24.932,229.180 23.628,229.562 23.628 C 229.692 23.628,230.286 23.280,230.883 22.856 C 233.686 20.861,238.872 19.728,241.446 20.549 M236.136 24.878 C 235.983 24.929,235.411 25.046,234.865 25.137 C 234.318 25.228,233.630 25.521,233.336 25.787 C 233.041 26.054,232.474 26.482,232.074 26.739 C 231.331 27.215,229.604 30.195,229.604 31.001 C 229.604 32.961,230.886 32.652,233.512 30.057 C 235.656 27.940,237.158 26.685,237.550 26.685 C 237.729 26.685,238.043 26.483,238.247 26.236 C 238.872 25.484,237.311 24.479,236.136 24.878 M160.945 43.033 C 161.939 43.485,163.002 44.089,163.308 44.376 C 163.614 44.662,164.207 45.117,164.627 45.386 C 165.046 45.656,165.580 46.331,165.812 46.888 C 166.045 47.444,166.493 48.161,166.808 48.481 C 167.898 49.587,168.773 51.242,169.012 52.650 C 169.144 53.429,169.387 54.753,169.552 55.594 C 169.913 57.433,169.678 59.955,168.970 61.849 C 168.151 64.040,168.257 64.513,169.910 66.036 C 178.652 74.092,178.410 73.631,175.462 76.640 C 172.698 79.459,172.619 79.423,165.045 71.874 C 163.328 70.164,161.993 69.792,160.432 70.590 C 156.435 72.634,150.681 72.161,146.862 69.473 C 146.226 69.025,145.579 68.659,145.426 68.659 C 145.273 68.659,144.732 68.127,144.225 67.477 C 143.717 66.828,143.135 66.122,142.931 65.910 C 142.728 65.697,142.353 65.197,142.100 64.798 C 141.847 64.399,141.489 63.977,141.305 63.861 C 140.980 63.656,140.770 62.794,140.085 58.860 C 139.647 56.338,140.525 50.767,141.500 49.884 C 141.799 49.614,142.044 49.256,142.046 49.088 C 142.047 48.921,142.485 48.235,143.019 47.563 C 143.552 46.892,143.989 46.246,143.989 46.128 C 143.989 45.809,147.197 43.680,148.675 43.019 C 151.688 41.671,157.967 41.679,160.945 43.033 M151.188 46.959 C 147.582 47.663,144.062 52.370,145.898 54.032 C 146.408 54.494,149.270 52.012,149.270 51.109 C 149.270 50.959,149.833 50.588,150.521 50.284 C 151.209 49.980,151.772 49.626,151.772 49.497 C 151.772 49.369,152.205 49.059,152.733 48.808 C 153.929 48.241,154.101 47.971,153.721 47.261 C 153.408 46.676,152.927 46.619,151.188 46.959 M203.968 73.278 C 205.913 73.525,208.131 73.974,208.895 74.275 C 209.659 74.577,210.848 75.042,211.536 75.310 C 212.224 75.578,213.248 76.098,213.812 76.467 C 214.375 76.835,215.363 77.450,216.006 77.832 C 218.327 79.212,223.232 84.455,224.196 86.588 C 224.473 87.199,224.907 88.013,225.161 88.395 C 225.414 88.777,225.786 89.715,225.986 90.479 C 226.186 91.244,226.607 92.432,226.920 93.120 C 227.782 95.013,227.791 104.861,226.933 106.741 C 226.619 107.429,226.271 108.367,226.159 108.826 C 225.933 109.754,223.796 114.216,223.354 114.683 C 223.199 114.848,222.634 115.584,222.099 116.321 C 221.273 117.456,220.047 118.897,218.902 120.075 C 218.343 120.650,216.164 122.340,215.595 122.639 C 215.274 122.808,214.948 123.025,214.871 123.120 C 214.568 123.500,209.924 125.645,209.022 125.822 C 208.494 125.926,207.561 126.272,206.949 126.591 C 205.406 127.397,195.593 127.469,194.060 126.686 C 193.544 126.423,192.293 126.002,191.280 125.750 C 190.266 125.498,189.124 125.080,188.742 124.822 C 188.360 124.563,187.550 124.123,186.942 123.843 C 186.335 123.563,185.669 123.165,185.463 122.959 C 185.257 122.754,184.931 122.585,184.737 122.585 C 184.544 122.585,183.549 121.678,182.526 120.570 C 179.032 116.783,178.000 115.502,177.102 113.829 C 176.774 113.218,176.386 112.530,176.240 112.300 C 172.978 107.190,172.547 95.099,175.419 89.331 C 175.866 88.434,176.232 87.543,176.232 87.352 C 176.233 87.161,176.334 87.005,176.456 87.005 C 176.578 87.005,176.941 86.473,177.263 85.823 C 178.066 84.197,179.925 82.130,184.099 78.222 C 186.434 76.035,191.971 73.816,196.223 73.362 C 197.842 73.189,199.218 72.999,199.282 72.938 C 199.478 72.752,200.298 72.812,203.968 73.278 M192.773 82.681 C 187.718 84.340,184.295 87.974,184.295 91.679 C 184.295 94.276,185.340 94.000,188.317 90.618 C 189.057 89.778,189.862 88.975,190.106 88.835 C 190.350 88.696,190.612 88.493,190.688 88.386 C 190.764 88.278,191.337 87.829,191.959 87.389 C 195.893 84.606,197.100 83.162,195.989 82.568 C 195.283 82.190,194.148 82.230,192.773 82.681 M273.980 92.739 C 274.387 93.025,275.075 93.476,275.511 93.740 C 276.475 94.325,279.361 97.088,279.361 97.425 C 279.361 97.559,279.852 98.427,280.452 99.355 C 283.479 104.034,283.474 111.176,280.440 114.279 C 279.999 114.730,279.639 115.223,279.639 115.374 C 279.639 115.816,277.395 118.130,275.878 119.253 C 274.507 120.268,269.818 121.748,267.953 121.753 C 266.948 121.756,261.501 120.327,261.015 119.933 C 260.785 119.747,260.160 119.377,259.625 119.112 C 257.616 118.117,256.119 116.187,253.802 111.605 L 252.536 109.104 250.869 108.908 C 245.436 108.269,240.764 107.769,238.101 107.541 C 234.192 107.207,234.258 107.270,234.375 103.949 C 234.518 99.841,234.284 99.899,247.257 100.780 L 253.623 101.212 254.116 100.571 C 254.387 100.219,254.612 99.736,254.615 99.498 C 254.630 98.421,258.566 94.340,260.459 93.437 C 263.535 91.970,263.395 91.994,268.448 92.110 C 272.568 92.204,273.345 92.293,273.980 92.739 M264.489 95.902 C 262.838 96.299,259.625 98.759,259.625 99.625 C 259.625 99.723,259.330 100.269,258.970 100.839 C 256.505 104.746,258.560 104.805,262.543 100.943 C 263.919 99.609,265.601 98.052,266.280 97.484 C 267.016 96.867,267.409 96.355,267.252 96.212 C 266.846 95.841,265.410 95.680,264.489 95.902 M167.038 108.200 C 167.173 108.544,167.504 109.613,167.775 110.576 C 168.047 111.539,168.372 112.391,168.498 112.469 C 169.509 113.093,167.720 115.203,165.939 115.487 C 165.256 115.596,164.023 115.988,163.198 116.359 C 162.373 116.729,161.184 117.108,160.557 117.201 C 159.930 117.293,158.858 117.673,158.176 118.045 C 157.494 118.416,156.368 118.794,155.674 118.884 C 154.980 118.975,153.725 119.406,152.884 119.843 C 152.043 120.280,151.019 120.638,150.609 120.639 C 149.759 120.639,149.150 120.875,147.186 121.966 L 145.796 122.737 145.440 125.075 C 145.244 126.361,144.977 127.547,144.846 127.710 C 144.716 127.872,144.520 128.443,144.411 128.978 C 144.303 129.514,143.882 130.389,143.476 130.924 C 143.070 131.459,142.499 132.366,142.208 132.940 C 141.916 133.513,141.573 133.982,141.446 133.982 C 141.318 133.982,140.879 134.357,140.470 134.816 C 140.062 135.274,139.585 135.650,139.411 135.650 C 139.237 135.650,138.601 136.013,137.998 136.456 C 137.330 136.948,136.357 137.343,135.511 137.469 C 134.746 137.582,133.636 137.844,133.044 138.052 C 131.667 138.534,129.626 138.534,128.249 138.052 C 127.656 137.844,126.550 137.583,125.791 137.470 C 123.739 137.166,120.253 134.554,118.910 132.314 C 118.590 131.779,118.050 131.028,117.711 130.646 C 115.155 127.765,115.163 119.953,117.726 116.415 C 118.092 115.910,118.568 115.122,118.783 114.663 C 119.236 113.699,122.291 110.793,123.845 109.848 C 126.283 108.366,133.785 108.342,136.917 109.806 C 137.889 110.261,138.808 110.632,138.960 110.632 C 139.384 110.632,142.528 113.863,142.733 114.509 C 142.955 115.208,143.079 115.212,144.591 114.565 C 145.254 114.282,146.421 113.958,147.186 113.846 C 147.950 113.733,148.951 113.412,149.409 113.131 C 149.868 112.850,151.082 112.427,152.108 112.189 C 153.134 111.952,154.445 111.504,155.023 111.195 C 155.600 110.886,156.303 110.632,156.585 110.632 C 156.867 110.632,157.870 110.324,158.813 109.948 C 159.756 109.572,161.341 109.009,162.335 108.698 C 163.329 108.388,164.329 108.009,164.559 107.858 C 165.365 107.326,166.773 107.521,167.038 108.200 M125.763 114.466 C 123.098 115.951,120.813 119.006,120.973 120.870 C 121.101 122.367,121.458 122.230,124.115 119.673 C 125.469 118.370,126.663 117.304,126.767 117.304 C 126.872 117.304,127.381 116.930,127.898 116.472 C 128.416 116.015,129.047 115.573,129.300 115.489 C 130.003 115.257,130.138 114.569,129.542 114.250 C 128.738 113.820,126.717 113.935,125.763 114.466 M212.642 136.429 C 212.799 138.069,213.148 139.827,213.469 140.587 C 213.774 141.312,214.153 142.741,214.312 143.765 C 214.470 144.788,214.846 146.414,215.149 147.378 C 215.451 148.342,215.700 149.331,215.702 149.575 C 215.708 150.342,216.590 150.839,219.597 151.771 C 222.358 152.626,224.444 153.662,225.481 154.693 C 226.710 155.916,227.335 156.740,227.905 157.887 C 228.247 158.575,228.713 159.483,228.942 159.905 C 229.171 160.327,229.522 161.265,229.721 161.990 C 229.920 162.715,230.250 163.897,230.454 164.618 C 230.878 166.115,229.304 172.898,228.533 172.898 C 228.427 172.898,228.034 173.461,227.658 174.149 C 227.282 174.837,226.908 175.400,226.826 175.400 C 226.744 175.400,226.368 175.900,225.990 176.511 C 225.612 177.123,225.163 177.623,224.992 177.623 C 224.821 177.623,224.323 177.956,223.885 178.362 C 221.789 180.304,217.329 181.264,213.113 180.681 C 209.108 180.126,205.092 177.908,204.058 175.678 C 203.739 174.990,202.985 173.614,202.383 172.620 C 199.671 168.144,200.198 160.997,203.526 157.113 C 203.956 156.611,204.309 156.099,204.309 155.974 C 204.309 155.526,205.305 154.619,206.427 154.048 C 208.210 153.141,208.299 148.953,206.608 145.563 C 206.392 145.129,206.109 143.754,205.980 142.505 C 205.851 141.257,205.538 139.673,205.285 138.985 C 203.954 135.369,204.024 134.379,205.631 134.111 C 206.203 134.016,207.797 133.713,209.173 133.436 C 212.307 132.807,212.297 132.798,212.642 136.429 M209.942 156.804 C 208.029 157.791,206.572 159.387,205.849 161.289 C 205.573 162.013,205.178 162.746,204.970 162.918 C 204.428 163.368,204.765 163.725,205.732 163.725 C 206.408 163.725,207.016 163.277,208.935 161.362 C 210.237 160.063,211.449 158.998,211.628 158.996 C 211.807 158.994,212.495 158.488,213.159 157.872 C 215.301 155.883,213.128 155.161,209.942 156.804 M82.049 214.776 C 82.756 215.415,82.822 233.473,82.131 236.790 C 81.400 240.294,78.358 243.898,75.520 244.622 C 74.881 244.785,74.020 245.050,73.607 245.211 C 72.655 245.582,69.724 245.592,69.040 245.225 C 68.754 245.072,67.929 244.859,67.207 244.750 C 66.430 244.634,65.636 244.300,65.261 243.932 C 64.913 243.591,64.280 243.087,63.855 242.813 C 61.193 241.098,59.120 235.825,59.827 232.568 C 59.965 231.932,60.200 230.861,60.348 230.188 C 60.496 229.516,60.926 228.599,61.303 228.152 C 61.679 227.704,61.987 227.223,61.987 227.082 C 61.987 226.693,64.287 224.544,65.496 223.804 C 67.859 222.358,74.071 222.155,75.593 223.475 C 76.679 224.417,78.011 224.963,78.763 224.775 L 79.500 224.590 79.500 219.878 L 79.500 215.167 80.264 214.752 C 81.249 214.218,81.436 214.220,82.049 214.776 M135.489 214.848 C 135.933 215.338,135.964 216.285,135.880 226.895 L 135.789 238.410 134.781 240.053 C 131.600 245.241,122.931 247.155,118.526 243.641 C 116.903 242.346,115.358 240.716,115.358 240.299 C 115.358 240.091,115.085 239.729,114.751 239.495 C 113.195 238.406,113.214 228.492,114.772 228.492 C 114.904 228.492,115.173 228.104,115.370 227.630 C 117.226 223.148,125.691 220.942,130.069 223.798 C 130.744 224.240,131.444 224.600,131.624 224.600 C 131.803 224.600,132.176 224.850,132.452 225.155 C 133.505 226.319,133.704 225.498,133.704 219.994 C 133.704 215.435,133.755 214.869,134.190 214.616 C 134.859 214.227,134.940 214.241,135.489 214.848 M317.304 215.199 C 317.457 215.340,317.649 217.562,317.731 220.137 C 317.912 225.769,317.883 225.712,320.540 225.712 C 322.338 225.712,322.479 225.758,322.789 226.438 C 323.275 227.506,322.532 227.936,320.203 227.936 C 317.548 227.936,317.611 227.774,317.792 234.129 C 317.955 239.879,318.061 240.388,319.383 241.765 C 320.182 242.597,320.389 242.669,322.000 242.669 C 324.984 242.669,325.642 244.856,322.796 245.312 C 322.221 245.404,321.532 245.523,321.265 245.577 C 320.802 245.669,318.098 244.440,317.288 243.768 C 317.078 243.593,316.433 242.743,315.854 241.878 L 314.802 240.306 314.802 227.718 C 314.802 216.859,314.859 215.094,315.217 214.873 C 315.663 214.597,316.851 214.783,317.304 215.199 M45.526 222.816 C 47.614 223.012,47.917 223.165,50.545 225.354 C 51.055 225.778,51.556 226.189,51.658 226.267 C 52.832 227.153,54.204 230.493,54.204 232.464 C 54.204 234.285,53.966 234.329,44.254 234.329 L 35.674 234.329 35.320 234.991 C 34.717 236.117,36.803 241.001,37.886 241.001 C 38.041 241.001,38.618 241.345,39.168 241.765 C 40.254 242.597,46.433 242.965,46.918 242.228 C 47.027 242.061,47.686 241.595,48.382 241.190 C 49.148 240.746,49.896 240.014,50.276 239.338 C 51.279 237.554,53.379 237.868,53.367 239.801 C 53.361 240.890,49.682 244.193,47.996 244.623 C 47.359 244.785,46.525 245.034,46.143 245.175 C 45.104 245.559,42.539 245.588,41.279 245.230 C 40.667 245.057,39.704 244.843,39.139 244.755 C 38.169 244.604,36.774 243.656,34.927 241.895 C 33.679 240.705,32.026 236.974,31.944 235.163 C 31.859 233.261,32.231 230.201,32.574 229.989 C 32.715 229.902,33.127 229.186,33.491 228.397 C 35.033 225.051,40.184 221.904,43.085 222.536 C 43.315 222.586,44.413 222.712,45.526 222.816 M155.335 222.816 C 156.147 222.922,156.967 223.163,157.155 223.352 C 157.343 223.540,157.914 223.910,158.422 224.173 C 159.677 224.822,161.775 227.024,162.271 228.214 C 162.494 228.749,162.944 229.562,163.270 230.021 C 164.016 231.069,164.370 244.617,163.674 245.491 C 163.264 246.006,161.519 245.895,161.376 245.344 C 160.528 242.083,159.851 241.018,159.390 242.219 C 158.560 244.384,153.418 245.769,149.300 244.938 C 147.875 244.650,143.989 242.394,143.989 241.854 C 143.989 241.732,143.707 241.275,143.363 240.838 C 140.581 237.309,140.382 230.866,142.961 227.774 C 144.826 225.538,145.530 224.831,146.448 224.274 C 147.007 223.934,147.533 223.557,147.619 223.434 C 147.875 223.065,152.235 222.379,153.301 222.540 C 153.607 222.586,154.522 222.710,155.335 222.816 M184.085 222.760 C 185.117 222.960,186.180 223.315,186.448 223.550 C 186.716 223.785,187.336 224.180,187.826 224.428 C 189.589 225.321,190.986 227.076,190.341 227.587 C 189.014 228.635,188.005 228.452,186.071 226.809 C 183.907 224.972,178.000 224.957,175.466 226.783 C 170.185 230.588,170.495 237.983,176.095 241.776 C 177.794 242.928,183.276 242.921,185.054 241.765 C 185.700 241.345,186.334 241.001,186.461 241.001 C 186.588 241.001,187.037 240.641,187.459 240.200 C 188.245 239.380,189.698 239.343,190.479 240.125 C 190.861 240.507,189.786 242.204,188.653 243.007 C 188.167 243.352,187.551 243.819,187.283 244.046 C 185.607 245.470,179.727 245.742,175.795 244.578 C 174.357 244.152,171.600 241.951,170.804 240.593 C 170.398 239.900,169.962 239.333,169.835 239.333 C 168.907 239.333,168.473 231.480,169.305 229.743 C 172.005 224.109,177.541 221.493,184.085 222.760 M209.094 222.772 C 211.658 223.188,215.407 225.445,215.849 226.840 C 215.944 227.138,216.326 227.745,216.698 228.187 C 218.714 230.583,218.511 237.132,216.320 240.358 C 215.681 241.299,214.770 242.345,214.294 242.684 C 213.818 243.023,213.133 243.574,212.772 243.908 C 212.111 244.521,210.062 245.088,207.526 245.361 C 203.706 245.772,198.704 243.210,197.204 240.073 C 196.973 239.590,196.576 238.819,196.323 238.360 C 193.289 232.858,197.905 223.991,204.425 222.797 C 205.507 222.599,206.456 222.424,206.532 222.408 C 206.609 222.392,207.762 222.556,209.094 222.772 M275.623 222.771 C 282.216 223.932,285.845 229.550,284.673 236.785 C 283.951 241.240,278.350 245.835,273.662 245.818 C 272.646 245.814,268.491 244.435,267.875 243.898 C 267.201 243.309,265.428 242.611,265.195 242.842 C 265.113 242.924,264.983 245.157,264.906 247.805 C 264.783 252.060,264.705 252.688,264.229 253.213 L 263.690 253.807 263.117 253.234 C 262.429 252.546,262.081 234.532,262.687 230.994 C 263.136 228.378,265.705 224.710,267.466 224.173 C 267.816 224.066,268.308 223.799,268.559 223.579 C 268.810 223.359,269.998 223.014,271.200 222.812 C 272.401 222.610,273.384 222.429,273.384 222.411 C 273.384 222.392,274.392 222.555,275.623 222.771 M293.274 230.332 C 293.446 238.110,293.822 239.828,295.622 241.068 C 296.081 241.384,296.612 241.835,296.804 242.070 C 297.054 242.378,297.849 242.531,299.648 242.617 L 302.145 242.736 303.937 241.521 C 306.526 239.765,306.442 240.098,306.602 230.998 L 306.741 223.080 307.789 222.910 C 309.739 222.594,309.703 222.433,309.604 231.141 L 309.516 238.916 308.604 240.659 C 307.492 242.785,306.000 244.233,304.517 244.625 C 303.905 244.786,303.054 245.056,302.624 245.224 C 299.837 246.314,295.231 244.964,292.959 242.391 C 290.954 240.120,290.705 238.788,290.559 229.561 L 290.460 223.263 291.234 222.991 C 293.031 222.357,293.102 222.614,293.274 230.332 M344.364 223.391 C 344.769 223.678,345.432 224.082,345.836 224.288 C 348.291 225.540,351.073 230.016,351.076 232.718 C 351.078 234.230,350.445 234.326,340.450 234.328 L 331.908 234.329 331.733 235.026 C 331.532 235.827,331.816 237.665,332.140 237.665 C 332.260 237.665,332.643 238.272,332.990 239.015 C 333.483 240.068,334.008 240.618,335.375 241.517 L 337.127 242.669 339.878 242.669 C 342.457 242.669,342.711 242.616,343.944 241.835 C 344.667 241.376,345.372 241.001,345.509 241.001 C 345.646 241.001,346.115 240.471,346.550 239.823 C 347.904 237.807,349.690 237.641,349.684 239.533 C 349.679 241.125,346.723 244.079,344.591 244.623 C 343.954 244.785,343.091 245.052,342.674 245.215 C 341.468 245.686,336.065 245.099,334.685 244.348 C 332.605 243.214,329.673 240.088,329.673 239.002 C 329.673 238.861,329.437 238.222,329.148 237.580 C 327.247 233.357,329.226 227.467,333.530 224.539 C 334.237 224.058,334.899 223.541,335.001 223.390 C 335.591 222.513,343.126 222.514,344.364 223.391 M102.734 223.778 C 104.370 224.575,105.872 226.010,106.691 227.559 C 107.816 229.686,107.900 243.864,106.795 244.955 L 106.154 245.587 105.335 244.679 L 104.517 243.772 104.517 237.226 C 104.517 227.232,103.972 226.247,98.420 226.202 L 95.374 226.177 93.900 227.317 C 91.814 228.929,91.709 229.365,91.539 237.109 C 91.389 243.978,91.060 245.448,89.675 245.448 C 88.365 245.448,87.772 232.086,88.948 229.063 C 89.780 226.926,91.802 224.592,93.188 224.170 C 93.533 224.065,94.003 223.817,94.232 223.620 C 95.429 222.590,100.489 222.684,102.734 223.778 M235.751 223.426 C 236.116 223.698,236.769 224.100,237.202 224.320 C 237.975 224.712,239.165 225.941,239.785 226.990 C 240.078 227.483,240.181 227.437,241.314 226.304 C 246.422 221.195,253.946 222.100,256.039 228.075 C 256.796 230.237,256.588 244.162,255.787 244.954 L 255.146 245.587 254.328 244.679 L 253.509 243.772 253.506 237.174 C 253.503 228.992,253.150 227.377,251.163 226.433 C 248.089 224.975,243.562 226.977,242.638 230.204 C 242.449 230.868,242.159 231.586,241.994 231.801 C 241.814 232.036,241.640 234.522,241.557 238.069 C 241.386 245.285,241.014 246.368,239.261 244.742 L 238.499 244.036 238.499 237.822 C 238.499 229.039,237.766 227.070,234.086 225.968 C 231.606 225.225,228.399 226.854,227.474 229.326 C 227.217 230.014,226.872 230.752,226.707 230.966 C 226.519 231.211,226.375 233.748,226.320 237.779 C 226.220 245.151,226.003 246.016,224.501 245.031 C 223.481 244.363,223.437 244.035,223.576 238.063 C 223.780 229.276,225.103 225.640,228.702 223.969 C 228.969 223.846,229.500 223.564,229.882 223.343 C 230.938 222.732,234.895 222.789,235.751 223.426 M365.665 223.311 C 366.558 223.964,365.467 225.446,363.699 225.984 C 361.939 226.519,360.609 227.821,359.435 230.160 L 358.527 231.967 358.382 237.804 C 358.203 245.016,357.920 245.997,356.271 245.129 C 355.279 244.606,355.255 244.444,355.260 238.221 C 355.265 232.890,355.324 232.125,355.803 231.133 C 356.098 230.521,356.344 229.823,356.349 229.582 C 356.417 226.414,363.442 221.685,365.665 223.311 M69.910 225.101 C 69.757 225.245,68.895 225.589,67.994 225.866 C 61.667 227.810,60.602 238.175,66.414 241.239 C 66.808 241.446,67.292 241.822,67.490 242.073 C 68.274 243.068,73.819 242.706,75.454 241.553 C 77.950 239.793,78.552 238.889,79.521 235.441 L 80.029 233.634 79.278 231.319 C 78.272 228.219,76.975 226.771,74.324 225.790 C 72.181 224.996,70.328 224.707,69.910 225.101 M123.419 225.157 C 123.190 225.305,122.377 225.630,121.612 225.880 C 119.726 226.495,117.840 228.348,117.176 230.237 C 116.895 231.035,116.576 231.814,116.467 231.967 C 116.007 232.610,115.935 233.822,116.290 234.940 C 116.499 235.598,116.812 236.650,116.986 237.277 C 117.400 238.774,118.845 240.570,120.228 241.307 C 120.836 241.631,121.689 242.085,122.124 242.315 C 123.439 243.013,127.428 242.685,128.839 241.763 C 130.124 240.923,132.302 238.777,132.309 238.343 C 132.312 238.180,132.586 237.492,132.919 236.814 C 134.840 232.899,132.322 227.120,128.145 225.857 C 127.304 225.602,126.399 225.278,126.133 225.136 C 125.505 224.801,123.951 224.813,123.419 225.157 M40.306 225.863 C 38.143 226.538,35.412 229.594,35.719 230.995 L 35.902 231.828 42.925 231.828 C 49.376 231.828,49.986 231.786,50.409 231.319 C 50.925 230.749,51.011 230.002,50.591 229.743 C 50.438 229.648,50.313 229.346,50.313 229.071 C 50.313 226.720,44.024 224.704,40.306 225.863 M149.635 225.943 C 143.987 227.791,142.216 235.560,146.436 239.979 C 148.947 242.608,153.578 243.579,155.420 241.862 C 155.765 241.541,156.137 241.279,156.249 241.279 C 156.681 241.279,158.952 238.878,159.141 238.221 C 159.251 237.839,159.608 237.234,159.935 236.876 C 160.962 235.751,160.771 231.302,159.619 229.505 C 157.410 226.061,153.518 224.673,149.635 225.943 M204.106 225.891 C 197.762 227.836,196.555 238.164,202.290 241.418 C 202.829 241.723,203.535 242.128,203.859 242.317 C 204.859 242.900,208.937 242.765,210.304 242.103 C 219.917 237.450,214.303 222.764,204.106 225.891 M271.390 225.725 C 266.464 226.699,263.445 232.944,265.630 237.638 C 266.371 239.230,268.361 241.557,268.981 241.557 C 269.171 241.557,269.436 241.754,269.571 241.995 C 269.874 242.536,273.032 242.974,275.040 242.752 C 278.222 242.401,280.971 239.718,281.815 236.139 L 282.388 233.709 281.599 231.363 C 280.040 226.724,276.428 224.729,271.390 225.725 M336.904 225.881 C 335.218 226.334,333.892 227.430,333.001 229.106 C 331.647 231.655,332.085 231.828,339.929 231.828 C 347.894 231.828,348.300 231.670,346.864 229.133 C 345.035 225.902,341.329 224.692,336.904 225.881 " stroke="none" fill="#e3ebfb" fill-rule="evenodd"></path></g></svg>